grf
version=1
nRows=18
nColumns=46
inDegrees=yes
endheader
time	ground_force_1_vx	ground_force_1_vy	ground_force_1_vz	ground_force_1_px	ground_force_1_py	ground_force_1_pz	ground_moment_1_mx	ground_moment_1_my	ground_moment_1_mz	ground_force_2_vx	ground_force_2_vy	ground_force_2_vz	ground_force_2_px	ground_force_2_py	ground_force_2_pz	ground_moment_2_mx	ground_moment_2_my	ground_moment_2_mz	ground_force_3_vx	ground_force_3_vy	ground_force_3_vz	ground_force_3_px	ground_force_3_py	ground_force_3_pz	ground_moment_3_mx	ground_moment_3_my	ground_moment_3_mz	ground_force_4_vx	ground_force_4_vy	ground_force_4_vz	ground_force_4_px	ground_force_4_py	ground_force_4_pz	ground_moment_4_mx	ground_moment_4_my	ground_moment_4_mz	ground_force_5_vx	ground_force_5_vy	ground_force_5_vz	ground_force_5_px	ground_force_5_py	ground_force_5_pz	ground_moment_5_mx	ground_moment_5_my	ground_moment_5_mz
0.602500	0.000000	0.000000	0.000000	0.000000	0.000000	0.000000	0.000000	0.000000	0.000000	0.000000	0.000000	0.000000	0.000000	0.000000	0.000000	0.000000	0.000000	0.000000	0.000000	0.000000	0.000000	0.000000	0.000000	0.000000	0.000000	0.000000	0.000000	7.991722	516.643323	-79.374971	0.176822	0.000000	-0.905003	-0.000000	4.499842	0.000000	-2.909495	487.815260	79.497855	0.211462	0.000000	-1.573366	0.000000	-6.274304	-0.000000
0.603000	0.000000	0.000000	0.000000	0.000000	0.000000	0.000000	0.000000	0.000000	0.000000	0.000000	0.000000	0.000000	0.000000	0.000000	0.000000	0.000000	0.000000	0.000000	0.000000	0.000000	0.000000	0.000000	0.000000	0.000000	0.000000	0.000000	0.000000	8.032934	516.676065	-79.338812	0.176830	0.000000	-0.904996	-0.000000	4.504612	0.000000	-2.883332	487.712728	79.422321	0.211461	0.000000	-1.573374	0.000000	-6.283239	-0.000000
0.603500	0.000000	0.000000	0.000000	0.000000	0.000000	0.000000	0.000000	0.000000	0.000000	0.000000	0.000000	0.000000	0.000000	0.000000	0.000000	0.000000	0.000000	0.000000	0.000000	0.000000	0.000000	0.000000	0.000000	0.000000	0.000000	0.000000	0.000000	8.073990	516.707251	-79.301912	0.176838	0.000000	-0.904988	-0.000000	4.509365	0.000000	-2.858336	487.620135	79.350483	0.211458	0.000000	-1.573382	0.000000	-6.292159	-0.000000
0.604000	0.000000	0.000000	0.000000	0.000000	0.000000	0.000000	0.000000	0.000000	0.000000	0.000000	0.000000	0.000000	0.000000	0.000000	0.000000	0.000000	0.000000	0.000000	0.000000	0.000000	0.000000	0.000000	0.000000	0.000000	0.000000	0.000000	0.000000	8.114799	516.737247	-79.264391	0.176847	0.000000	-0.904980	-0.000000	4.514104	0.000000	-2.834448	487.537578	79.282397	0.211455	0.000000	-1.573389	0.000000	-6.301052	-0.000000
0.604500	0.000000	0.000000	0.000000	0.000000	0.000000	0.000000	0.000000	0.000000	0.000000	0.000000	0.000000	0.000000	0.000000	0.000000	0.000000	0.000000	0.000000	0.000000	0.000000	0.000000	0.000000	0.000000	0.000000	0.000000	0.000000	0.000000	0.000000	8.155281	516.766419	-79.226382	0.176856	0.000000	-0.904971	-0.000000	4.518831	0.000000	-2.811606	487.465121	79.218111	0.211451	0.000000	-1.573397	0.000000	-6.309910	-0.000000
0.605000	0.000000	0.000000	0.000000	0.000000	0.000000	0.000000	0.000000	0.000000	0.000000	0.000000	0.000000	0.000000	0.000000	0.000000	0.000000	0.000000	0.000000	0.000000	0.000000	0.000000	0.000000	0.000000	0.000000	0.000000	0.000000	0.000000	0.000000	8.195363	516.795141	-79.188021	0.176864	0.000000	-0.904962	-0.000000	4.523547	0.000000	-2.789737	487.402792	79.157660	0.211446	0.000000	-1.573404	0.000000	-6.318726	-0.000000
0.605500	0.000000	0.000000	0.000000	0.000000	0.000000	0.000000	0.000000	0.000000	0.000000	0.000000	0.000000	0.000000	0.000000	0.000000	0.000000	0.000000	0.000000	0.000000	0.000000	0.000000	0.000000	0.000000	0.000000	0.000000	0.000000	0.000000	0.000000	8.234978	516.823795	-79.149454	0.176874	0.000000	-0.904953	-0.000000	4.528254	0.000000	-2.768758	487.350569	79.101068	0.211441	0.000000	-1.573411	0.000000	-6.327490	-0.000000
0.606000	0.000000	0.000000	0.000000	0.000000	0.000000	0.000000	0.000000	0.000000	0.000000	0.000000	0.000000	0.000000	0.000000	0.000000	0.000000	0.000000	0.000000	0.000000	0.000000	0.000000	0.000000	0.000000	0.000000	0.000000	0.000000	0.000000	0.000000	8.274056	516.852758	-79.110820	0.176883	0.000000	-0.904943	-0.000000	4.532952	0.000000	-2.748578	487.308373	79.048339	0.211435	0.000000	-1.573418	0.000000	-6.336196	-0.000000
0.606500	0.000000	0.000000	0.000000	0.000000	0.000000	0.000000	0.000000	0.000000	0.000000	0.000000	0.000000	0.000000	0.000000	0.000000	0.000000	0.000000	0.000000	0.000000	0.000000	0.000000	0.000000	0.000000	0.000000	0.000000	0.000000	0.000000	0.000000	8.312523	516.882402	-79.072262	0.176893	0.000000	-0.904933	-0.000000	4.537641	0.000000	-2.729097	487.276069	78.999465	0.211428	0.000000	-1.573425	0.000000	-6.344835	-0.000000
0.607000	0.000000	0.000000	0.000000	0.000000	0.000000	0.000000	0.000000	0.000000	0.000000	0.000000	0.000000	0.000000	0.000000	0.000000	0.000000	0.000000	0.000000	0.000000	0.000000	0.000000	0.000000	0.000000	0.000000	0.000000	0.000000	0.000000	0.000000	8.350304	516.913089	-79.033917	0.176902	0.000000	-0.904922	-0.000000	4.542320	0.000000	-2.710207	487.253483	78.954419	0.211420	0.000000	-1.573431	0.000000	-6.353401	-0.000000
0.607500	0.000000	0.000000	0.000000	0.000000	0.000000	0.000000	0.000000	0.000000	0.000000	0.000000	0.000000	0.000000	0.000000	0.000000	0.000000	0.000000	0.000000	0.000000	0.000000	0.000000	0.000000	0.000000	0.000000	0.000000	0.000000	0.000000	0.000000	8.387325	516.945156	-78.995924	0.176913	0.000000	-0.904911	-0.000000	4.546986	0.000000	-2.691796	487.240407	78.913163	0.211412	0.000000	-1.573438	0.000000	-6.361887	-0.000000
0.608000	0.000000	0.000000	0.000000	0.000000	0.000000	0.000000	0.000000	0.000000	0.000000	0.000000	0.000000	0.000000	0.000000	0.000000	0.000000	0.000000	0.000000	0.000000	0.000000	0.000000	0.000000	0.000000	0.000000	0.000000	0.000000	0.000000	0.000000	8.423512	516.978906	-78.958420	0.176923	0.000000	-0.904900	-0.000000	4.551640	0.000000	-2.673751	487.236607	78.875648	0.211403	0.000000	-1.573444	0.000000	-6.370288	-0.000000
0.608500	0.000000	0.000000	0.000000	0.000000	0.000000	0.000000	0.000000	0.000000	0.000000	0.000000	0.000000	0.000000	0.000000	0.000000	0.000000	0.000000	0.000000	0.000000	0.000000	0.000000	0.000000	0.000000	0.000000	0.000000	0.000000	0.000000	0.000000	8.458796	517.014617	-78.921548	0.176933	0.000000	-0.904888	-0.000000	4.556277	0.000000	-2.655963	487.241824	78.841809	0.211393	0.000000	-1.573451	0.000000	-6.378597	-0.000000
0.609000	0.000000	0.000000	0.000000	0.000000	0.000000	0.000000	0.000000	0.000000	0.000000	0.000000	0.000000	0.000000	0.000000	0.000000	0.000000	0.000000	0.000000	0.000000	0.000000	0.000000	0.000000	0.000000	0.000000	0.000000	0.000000	0.000000	0.000000	8.493114	517.052550	-78.885461	0.176944	0.000000	-0.904876	-0.000000	4.560896	0.000000	-2.638327	487.255765	78.811576	0.211383	0.000000	-1.573458	0.000000	-6.386810	-0.000000
0.609500	0.000000	0.000000	0.000000	0.000000	0.000000	0.000000	0.000000	0.000000	0.000000	0.000000	0.000000	0.000000	0.000000	0.000000	0.000000	0.000000	0.000000	0.000000	0.000000	0.000000	0.000000	0.000000	0.000000	0.000000	0.000000	0.000000	0.000000	8.526408	517.092947	-78.850311	0.176955	0.000000	-0.904864	-0.000000	4.565493	0.000000	-2.620740	487.278104	78.784864	0.211372	0.000000	-1.573464	0.000000	-6.394920	-0.000000
0.610000	0.000000	0.000000	0.000000	0.000000	0.000000	0.000000	0.000000	0.000000	0.000000	0.000000	0.000000	0.000000	0.000000	0.000000	0.000000	0.000000	0.000000	0.000000	0.000000	0.000000	0.000000	0.000000	0.000000	0.000000	0.000000	0.000000	0.000000	8.558620	517.136029	-78.816248	0.176967	0.000000	-0.904851	-0.000000	4.570066	0.000000	-2.603103	487.308484	78.761580	0.211361	0.000000	-1.573471	0.000000	-6.402923	-0.000000
0.610500	0.000000	0.000000	0.000000	0.000000	0.000000	0.000000	0.000000	0.000000	0.000000	0.000000	0.000000	0.000000	0.000000	0.000000	0.000000	0.000000	0.000000	0.000000	0.000000	0.000000	0.000000	0.000000	0.000000	0.000000	0.000000	0.000000	0.000000	8.589693	517.182000	-78.783414	0.176978	0.000000	-0.904838	-0.000000	4.574609	0.000000	-2.585314	487.346515	78.741620	0.211349	0.000000	-1.573478	0.000000	-6.410815	-0.000000
0.611000	0.000000	0.000000	0.000000	0.000000	0.000000	0.000000	0.000000	0.000000	0.000000	0.000000	0.000000	0.000000	0.000000	0.000000	0.000000	0.000000	0.000000	0.000000	0.000000	0.000000	0.000000	0.000000	0.000000	0.000000	0.000000	0.000000	0.000000	8.619576	517.231050	-78.751942	0.176990	0.000000	-0.904825	-0.000000	4.579121	0.000000	-2.567271	487.391780	78.724875	0.211336	0.000000	-1.573485	0.000000	-6.418589	-0.000000
